<?xml version="1.0" encoding="UTF-8" standalone="no"?>
<svg
   xmlns:dc="http://purl.org/dc/elements/1.1/"
   xmlns:cc="http://creativecommons.org/ns#"
   xmlns:rdf="http://www.w3.org/1999/02/22-rdf-syntax-ns#"
   xmlns:svg="http://www.w3.org/2000/svg"
   xmlns="http://www.w3.org/2000/svg"
   xmlns:sodipodi="http://sodipodi.sourceforge.net/DTD/sodipodi-0.dtd"
   xmlns:inkscape="http://www.inkscape.org/namespaces/inkscape"
   version="1.0"
   width="400px"
   height="300px"
   viewBox="0 0 4000 3000"
   preserveAspectRatio="xMidYMid meet"
   id="svg34"
   sodipodi:docname="logo.svg"
   inkscape:version="0.92.1 r">
  <metadata
     id="metadata40">
    <rdf:RDF>
      <cc:Work
         rdf:about="">
        <dc:format>image/svg+xml</dc:format>
        <dc:type
           rdf:resource="http://purl.org/dc/dcmitype/StillImage" />
      </cc:Work>
    </rdf:RDF>
  </metadata>
  <defs
     id="defs38" />
  <sodipodi:namedview
     pagecolor="#ffffff"
     bordercolor="#666666"
     borderopacity="1"
     objecttolerance="10"
     gridtolerance="10"
     guidetolerance="10"
     inkscape:pageopacity="0"
     inkscape:pageshadow="2"
     inkscape:window-width="1366"
     inkscape:window-height="705"
     id="namedview36"
     showgrid="false"
     inkscape:zoom="1.1125147"
     inkscape:cx="159.53393"
     inkscape:cy="145.86516"
     inkscape:window-x="0"
     inkscape:window-y="26"
     inkscape:window-maximized="1"
     inkscape:current-layer="svg34" />
  <g
     id="layer1"
     transform="translate(-4669.0957,141.65937)"
     style="fill:#ffffff;stroke:none">
    <path
       d="M 0,1500 V 0 h 2000 2000 v 1164 1164 l -65,172 c -36,95 -65,176 -65,181 0,5 11,9 24,9 19,0 26,-8 36,-45 11,-40 16,-45 41,-45 h 29 v 200 200 H 2000 0 Z m 3390,1177 c 14,-7 26,-23 28,-35 4,-26 -1,-27 -34,-5 -31,20 -104,22 -139,3 -33,-17 -55,-68 -55,-125 0,-57 22,-108 55,-125 35,-19 108,-17 139,3 32,22 36,21 36,-2 0,-34 -38,-51 -111,-51 -113,0 -169,58 -169,175 0,115 56,175 164,175 34,0 72,-6 86,-13 z m 333,-25 c 31,-31 32,-34 35,-141 4,-101 5,-108 23,-104 28,8 49,-15 49,-53 0,-24 -5,-34 -15,-34 -9,0 -15,9 -15,23 0,13 -3,26 -6,30 -10,9 -34,-4 -34,-19 0,-8 -10,-14 -24,-14 h -24 l -4,136 c -3,129 -4,137 -27,155 -33,27 -86,25 -116,-6 -24,-23 -25,-29 -25,-155 v -130 h -25 -25 v 126 c 0,94 4,134 16,159 21,46 66,67 132,62 44,-3 59,-9 85,-35 z m -63,-377 c 19,-21 22,-29 14,-43 -13,-20 -85,-24 -91,-5 -3,8 6,10 31,6 29,-5 36,-2 36,11 0,9 -6,19 -14,22 -19,7 -29,34 -12,34 7,0 23,-11 36,-25 z m -25,-89 c 139,-39 244,-115 291,-213 21,-43 29,-75 32,-138 10,-182 -72,-301 -238,-345 l -45,-12 61,-28 c 113,-51 170,-133 181,-258 9,-107 -15,-174 -85,-242 -93,-90 -209,-120 -467,-120 -129,0 -295,13 -338,26 -16,5 -17,43 -15,667 l 3,662 65,12 c 99,18 478,11 555,-11 z m -1212,-414 377,-378 v -50 c 0,-40 -6,-59 -29,-90 -52,-71 -385,-392 -415,-400 -15,-3 -46,-4 -68,-1 -37,5 -55,19 -152,116 L 2026,1080 1909,965 1793,850 h -54 -53 l -246,245 -245,245 195,195 c 122,122 202,195 215,195 12,0 105,-85 251,-231 204,-204 235,-230 255,-224 30,9 45,24 54,54 6,20 -20,51 -224,255 -150,151 -231,239 -231,252 0,23 159,184 181,184 8,0 181,-166 384,-370 332,-332 373,-370 402,-370 33,0 63,29 63,59 0,8 -169,184 -375,391 -206,207 -375,379 -375,382 0,21 15,38 34,38 15,0 135,-114 399,-378 z"
       id="path2"
       inkscape:connector-curvature="0" />
    <path
       d="m 3277,1983 c -4,-3 -7,-89 -7,-191 v -184 l 133,4 c 95,3 144,10 174,22 162,68 143,290 -29,341 -52,15 -258,22 -271,8 z"
       id="path4"
       inkscape:connector-curvature="0" />
    <path
       d="m 3270,1229 v -181 l 133,4 c 111,2 138,6 167,24 52,30 80,78 80,136 0,82 -39,131 -140,177 -35,16 -66,21 -142,21 h -98 z"
       id="path6"
       inkscape:connector-curvature="0" />
  </g>
  <g
     id="layer2"
     transform="translate(3599.3606,-1277.9669)"
     style="fill:#ff2f30;stroke:none"
     inkscape:export-xdpi="14.793909"
     inkscape:export-ydpi="14.793909">
    <path
       d="m 1060.9492,3159.8009 c -24,-23 6,-60 224,-279 204,-204 230,-235 224,-255 -9,-30 -24,-45 -54,-54 -20,-6 -51,20 -255,224 -146,146 -239.00005,231 -251.00005,231 -13,0 -93,-73 -215,-195 l -195,-195 245,-245 246.00005,-245 h 54 54 l 204,203 c 112,111 210,215 219,231 10,19 13,43 10,69 -5,37 -26,61 -244,279 -131,131 -243,238 -249,238 -6,0 -14,-3 -17,-7 z"
       id="path13"
       inkscape:connector-curvature="0" />
  </g>
  <g
     id="layer3"
     transform="translate(2926.3098,7.8296829)"
     style="fill:#b21617;stroke:none"
     inkscape:export-xdpi="14.793909"
     inkscape:export-ydpi="14.793909">
    <path
       d="m 1996,2134 c -3,-9 -6,-18 -6,-22 0,-3 169,-175 375,-382 206,-207 375,-383 375,-391 0,-30 -30,-59 -63,-59 -29,0 -70,38 -402,370 -203,204 -376,370 -384,370 -7,0 -46,-31 -85,-70 l -72,-70 243,-242 c 309,-309 306,-297 145,-460 l -96,-99 110,-110 c 97,-97 115,-111 152,-116 22,-3 53,-2 68,1 30,8 363,329 415,400 23,31 29,50 29,90 v 50 l -377,378 c -376,376 -410,405 -427,362 z"
       id="path16"
       inkscape:connector-curvature="0" />
  </g>
  <g
     id="layer4"
     fill="#030303"
     stroke="none" />
  <g
     id="layer5"
     fill="#2e2e2e"
     stroke="none" />
  <g
     id="layer6"
     fill="#4f4f4f"
     stroke="none" />
</svg>
